<?xml version="1.0" encoding="UTF-8" standalone="no"?>
<svg width="150px" height="150px" viewBox="0 0 150 150" version="1.1" xmlns="http://www.w3.org/2000/svg" xmlns:xlink="http://www.w3.org/1999/xlink">
    <!-- Generator: Sketch 42 (36781) - http://www.bohemiancoding.com/sketch -->
    <title>Logo</title>
    <desc>Created with Sketch.</desc>
    <defs>
        <path d="M123.000375,150 L27.000375,150 C12.088875,150 0.000375,137.9115 0.000375,123 L0.000375,27 C0.000375,12.0885 12.088875,0 27.000375,0 L123.000375,0 C137.912625,0 150.000375,12.0885 150.000375,27 L150.000375,123 C150.000375,137.9115 137.912625,150 123.000375,150 Z" id="path-1"></path>
        <mask id="mask-2" maskContentUnits="userSpaceOnUse" maskUnits="objectBoundingBox" x="0" y="0" width="150" height="150" fill="white">
            <use xlink:href="#path-1"></use>
        </mask>
    </defs>
    <g id="Page-1" stroke="none" stroke-width="1" fill="none" fill-rule="evenodd">
        <g id="Borda-branca" transform="translate(-1.000000, -1.000000)">
            <g id="Logo" transform="translate(1.000000, 1.000000)">
                <use id="Stroke-1" stroke="#FFFFFF" mask="url(#mask-2)" stroke-width="6" xlink:href="#path-1"></use>
                <path d="M109.16565,37.54245 L109.16565,37.54245 C104.21715,33.13245 96.63315,33.56745 92.22165,38.51445 L75.00015,57.8337 L57.77715,38.51445 C53.36865,33.56745 45.78315,33.13245 40.83615,37.54245 C35.8884,41.95245 35.4534,49.53795 39.86415,54.48495 L65.9724,83.77395 C68.2419,86.3187 71.35065,87.6597 74.50815,87.77145 C74.6724,87.77895 74.83665,87.77595 75.00015,87.7767 C75.16515,87.77595 75.32865,87.77895 75.49365,87.77145 C78.64965,87.6597 81.7599,86.3187 84.02715,83.77395 L110.13765,54.48495 C114.54765,49.53795 114.11265,41.95245 109.16565,37.54245" id="Fill-3" fill="#F07355"></path>
                <path d="M101.180025,115.5 L101.180025,115.5 C94.553025,115.5 89.180025,110.127 89.180025,103.5 L89.180025,46.5 C89.180025,39.873 94.553025,34.5 101.180025,34.5 C107.807775,34.5 113.180025,39.873 113.180025,46.5 L113.180025,103.5 C113.180025,110.127 107.807775,115.5 101.180025,115.5" id="Fill-5" fill="#F8B643" style="mix-blend-mode: multiply;"></path>
                <path d="M48.82035,115.5 L48.82035,115.5 C42.19335,115.5 36.82035,110.127 36.82035,103.5 L36.82035,46.5 C36.82035,39.873 42.19335,34.5 48.82035,34.5 C55.4481,34.5 60.82035,39.873 60.82035,46.5 L60.82035,103.5 C60.82035,110.127 55.4481,115.5 48.82035,115.5" id="Fill-8" fill="#EC4386" style="mix-blend-mode: multiply;"></path>
            </g>
        </g>
    </g>
</svg>
